<svg width="148" height="41" viewBox="0 0 148 41" fill="none" xmlns="http://www.w3.org/2000/svg">
<rect x="0.5" y="0.5" width="147" height="40" rx="20" fill="#D8D2C4" stroke="#3C3731"/>
<path d="M44.852 26.168C43.8533 26.168 42.948 25.9533 42.136 25.524C41.3333 25.0853 40.6987 24.4833 40.232 23.718C39.7747 22.9433 39.546 22.0707 39.546 21.1C39.546 20.1293 39.7747 19.2613 40.232 18.496C40.6987 17.7213 41.3333 17.1193 42.136 16.69C42.948 16.2513 43.858 16.032 44.866 16.032C45.7153 16.032 46.4807 16.1813 47.162 16.48C47.8527 16.7787 48.4313 17.208 48.898 17.768L47.442 19.112C46.7793 18.3467 45.958 17.964 44.978 17.964C44.3713 17.964 43.83 18.0993 43.354 18.37C42.878 18.6313 42.5047 19 42.234 19.476C41.9727 19.952 41.842 20.4933 41.842 21.1C41.842 21.7067 41.9727 22.248 42.234 22.724C42.5047 23.2 42.878 23.5733 43.354 23.844C43.83 24.1053 44.3713 24.236 44.978 24.236C45.958 24.236 46.7793 23.8487 47.442 23.074L48.898 24.418C48.4313 24.9873 47.8527 25.4213 47.162 25.72C46.4713 26.0187 45.7013 26.168 44.852 26.168ZM53.5262 23.144H52.3922V26H50.2082V18.468H52.3922V21.394H53.5682L55.6122 18.468H57.9362L55.3042 22.08L58.1182 26H55.5422L53.5262 23.144ZM66.5602 18.468V26H64.4742V25.132C63.9329 25.7853 63.1489 26.112 62.1222 26.112C61.4129 26.112 60.7689 25.9533 60.1902 25.636C59.6209 25.3187 59.1729 24.866 58.8462 24.278C58.5195 23.69 58.3562 23.0087 58.3562 22.234C58.3562 21.4593 58.5195 20.778 58.8462 20.19C59.1729 19.602 59.6209 19.1493 60.1902 18.832C60.7689 18.5147 61.4129 18.356 62.1222 18.356C63.0835 18.356 63.8349 18.6593 64.3762 19.266V18.468H66.5602ZM62.5002 24.32C63.0509 24.32 63.5082 24.1333 63.8722 23.76C64.2362 23.3773 64.4182 22.8687 64.4182 22.234C64.4182 21.5993 64.2362 21.0953 63.8722 20.722C63.5082 20.3393 63.0509 20.148 62.5002 20.148C61.9402 20.148 61.4782 20.3393 61.1142 20.722C60.7502 21.0953 60.5682 21.5993 60.5682 22.234C60.5682 22.8687 60.7502 23.3773 61.1142 23.76C61.4782 24.1333 61.9402 24.32 62.5002 24.32ZM75.4002 18.468V26H73.2162V23.2C72.5816 23.5173 71.8816 23.676 71.1162 23.676C70.0989 23.676 69.3289 23.4473 68.8062 22.99C68.2929 22.5233 68.0362 21.8047 68.0362 20.834V18.468H70.2202V20.694C70.2202 21.1513 70.3369 21.4827 70.5702 21.688C70.8129 21.8933 71.1582 21.996 71.6062 21.996C72.1756 21.996 72.7122 21.8747 73.2162 21.632V18.468H75.4002ZM85.0993 18.468V26H83.0133V25.132C82.4719 25.7853 81.6879 26.112 80.6613 26.112C79.9519 26.112 79.3079 25.9533 78.7293 25.636C78.1599 25.3187 77.7119 24.866 77.3853 24.278C77.0586 23.69 76.8953 23.0087 76.8953 22.234C76.8953 21.4593 77.0586 20.778 77.3853 20.19C77.7119 19.602 78.1599 19.1493 78.7293 18.832C79.3079 18.5147 79.9519 18.356 80.6613 18.356C81.6226 18.356 82.3739 18.6593 82.9153 19.266V18.468H85.0993ZM81.0393 24.32C81.5899 24.32 82.0473 24.1333 82.4113 23.76C82.7753 23.3773 82.9573 22.8687 82.9573 22.234C82.9573 21.5993 82.7753 21.0953 82.4113 20.722C82.0473 20.3393 81.5899 20.148 81.0393 20.148C80.4793 20.148 80.0173 20.3393 79.6533 20.722C79.2893 21.0953 79.1073 21.5993 79.1073 22.234C79.1073 22.8687 79.2893 23.3773 79.6533 23.76C80.0173 24.1333 80.4793 24.32 81.0393 24.32ZM96.7953 18.356C97.7379 18.356 98.4846 18.636 99.0353 19.196C99.5953 19.7467 99.8753 20.5773 99.8753 21.688V26H97.6913V22.024C97.6913 21.4267 97.5653 20.9833 97.3133 20.694C97.0706 20.3953 96.7206 20.246 96.2633 20.246C95.7499 20.246 95.3439 20.414 95.0453 20.75C94.7466 21.0767 94.5973 21.5667 94.5973 22.22V26H92.4133V22.024C92.4133 20.8387 91.9373 20.246 90.9853 20.246C90.4813 20.246 90.0799 20.414 89.7813 20.75C89.4826 21.0767 89.3333 21.5667 89.3333 22.22V26H87.1493V18.468H89.2353V19.336C89.5153 19.0187 89.8559 18.776 90.2573 18.608C90.6679 18.44 91.1159 18.356 91.6013 18.356C92.1333 18.356 92.6139 18.4633 93.0433 18.678C93.4726 18.8833 93.8179 19.1867 94.0793 19.588C94.3873 19.196 94.7746 18.8927 95.2413 18.678C95.7173 18.4633 96.2353 18.356 96.7953 18.356ZM105.237 26.21C104.042 26.21 103.137 25.944 102.521 25.412C101.914 24.88 101.611 24.096 101.611 23.06V18.468H103.781V21.016C104.014 20.848 104.313 20.7173 104.677 20.624C105.05 20.5307 105.465 20.484 105.923 20.484C106.865 20.484 107.603 20.7173 108.135 21.184C108.667 21.6507 108.933 22.332 108.933 23.228C108.933 24.1893 108.601 24.9267 107.939 25.44C107.285 25.9533 106.385 26.21 105.237 26.21ZM105.237 24.67C105.703 24.67 106.063 24.544 106.315 24.292C106.576 24.04 106.707 23.6993 106.707 23.27C106.707 22.8593 106.581 22.5373 106.329 22.304C106.086 22.0707 105.736 21.954 105.279 21.954C104.943 21.954 104.644 22.0147 104.383 22.136C104.121 22.2573 103.921 22.43 103.781 22.654V23.27C103.781 23.7087 103.907 24.054 104.159 24.306C104.42 24.5487 104.779 24.67 105.237 24.67Z" fill="#4C483D"/>
</svg>
