<svg width="227" height="25" viewBox="0 0 227 25" fill="none" xmlns="http://www.w3.org/2000/svg">
<rect x="0.5" y="0.5" width="226" height="24" rx="12" fill="#FCF6E9" stroke="white"/>
<path d="M16.927 7.822C18.123 7.822 19.059 8.12967 19.735 8.745C20.411 9.36033 20.749 10.2097 20.749 11.293C20.749 12.3417 20.437 13.165 19.813 13.763C19.189 14.3523 18.331 14.647 17.239 14.647C16.7623 14.647 16.303 14.5863 15.861 14.465C15.419 14.3437 14.9553 14.1487 14.47 13.88V17H13.196V11.475C13.196 10.3137 13.521 9.41667 14.171 8.784C14.821 8.14267 15.7397 7.822 16.927 7.822ZM17.018 13.594C17.772 13.594 18.3657 13.3947 18.799 12.996C19.2323 12.5887 19.449 12.0297 19.449 11.319C19.449 10.591 19.228 10.0233 18.786 9.616C18.344 9.2 17.7373 8.992 16.966 8.992C16.1773 8.992 15.562 9.20867 15.12 9.642C14.6867 10.0667 14.47 10.6733 14.47 11.462V12.684C14.8253 12.9787 15.2197 13.204 15.653 13.36C16.0863 13.516 16.5413 13.594 17.018 13.594ZM28.9234 10.11V16.064C28.9234 17.2687 28.6417 18.157 28.0784 18.729C27.515 19.3097 26.67 19.6 25.5434 19.6C24.928 19.6 24.3387 19.509 23.7754 19.327C23.2207 19.1537 22.7657 18.9023 22.4104 18.573L23.0214 17.611C23.3247 17.8883 23.6887 18.105 24.1134 18.261C24.5467 18.417 25.0017 18.495 25.4784 18.495C26.2324 18.495 26.787 18.3043 27.1424 17.923C27.4977 17.5503 27.6754 16.974 27.6754 16.194V15.687C27.424 16.0163 27.099 16.272 26.7004 16.454C26.3017 16.6273 25.8684 16.714 25.4004 16.714C24.4817 16.714 23.758 16.4627 23.2294 15.96C22.7007 15.4573 22.4364 14.712 22.4364 13.724V10.11H23.6844V13.581C23.6844 14.2397 23.8447 14.7423 24.1654 15.089C24.486 15.427 24.9454 15.596 25.5434 15.596C26.202 15.596 26.722 15.3967 27.1034 14.998C27.4847 14.5993 27.6754 14.036 27.6754 13.308V10.11H28.9234ZM34.0032 14.088H32.5732V17H31.3252V10.11H32.5732V13.022H34.0292L36.2652 10.11H37.6042L34.9912 13.425L37.7862 17H36.3172L34.0032 14.088ZM41.8172 17.078C41.1326 17.078 40.5172 16.9263 39.9712 16.623C39.4252 16.3197 38.9962 15.9037 38.6842 15.375C38.3809 14.8377 38.2292 14.231 38.2292 13.555C38.2292 12.879 38.3809 12.2767 38.6842 11.748C38.9962 11.2107 39.4252 10.7947 39.9712 10.5C40.5172 10.1967 41.1326 10.045 41.8172 10.045C42.5019 10.045 43.1129 10.1967 43.6502 10.5C44.1962 10.7947 44.6209 11.2107 44.9242 11.748C45.2362 12.2767 45.3922 12.879 45.3922 13.555C45.3922 14.231 45.2362 14.8377 44.9242 15.375C44.6209 15.9037 44.1962 16.3197 43.6502 16.623C43.1129 16.9263 42.5019 17.078 41.8172 17.078ZM41.8172 15.986C42.2592 15.986 42.6536 15.8863 43.0002 15.687C43.3556 15.479 43.6329 15.193 43.8322 14.829C44.0316 14.4563 44.1312 14.0317 44.1312 13.555C44.1312 13.0783 44.0316 12.658 43.8322 12.294C43.6329 11.9213 43.3556 11.6353 43.0002 11.436C42.6536 11.2367 42.2592 11.137 41.8172 11.137C41.3752 11.137 40.9766 11.2367 40.6212 11.436C40.2746 11.6353 39.9972 11.9213 39.7892 12.294C39.5899 12.658 39.4902 13.0783 39.4902 13.555C39.4902 14.0317 39.5899 14.4563 39.7892 14.829C39.9972 15.193 40.2746 15.479 40.6212 15.687C40.9766 15.8863 41.3752 15.986 41.8172 15.986ZM51.8874 13.425C52.78 13.6503 53.2264 14.2093 53.2264 15.102C53.2264 15.7087 52.9967 16.1767 52.5374 16.506C52.0867 16.8353 51.4107 17 50.5094 17H47.1944V10.11H50.3924C51.207 10.11 51.844 10.266 52.3034 10.578C52.7627 10.8813 52.9924 11.3147 52.9924 11.878C52.9924 12.242 52.8927 12.5583 52.6934 12.827C52.5027 13.087 52.234 13.2863 51.8874 13.425ZM48.4164 13.074H50.2884C50.765 13.074 51.1247 12.9873 51.3674 12.814C51.6187 12.6407 51.7444 12.3893 51.7444 12.06C51.7444 11.4013 51.259 11.072 50.2884 11.072H48.4164V13.074ZM50.4184 16.038C50.9384 16.038 51.3284 15.9557 51.5884 15.791C51.8484 15.6263 51.9784 15.3707 51.9784 15.024C51.9784 14.6687 51.857 14.4043 51.6144 14.231C51.3804 14.0577 51.0077 13.971 50.4964 13.971H48.4164V16.038H50.4184ZM58.1307 17.078C57.446 17.078 56.8307 16.9263 56.2847 16.623C55.7387 16.3197 55.3097 15.9037 54.9977 15.375C54.6944 14.8377 54.5427 14.231 54.5427 13.555C54.5427 12.879 54.6944 12.2767 54.9977 11.748C55.3097 11.2107 55.7387 10.7947 56.2847 10.5C56.8307 10.1967 57.446 10.045 58.1307 10.045C58.8154 10.045 59.4264 10.1967 59.9637 10.5C60.5097 10.7947 60.9344 11.2107 61.2377 11.748C61.5497 12.2767 61.7057 12.879 61.7057 13.555C61.7057 14.231 61.5497 14.8377 61.2377 15.375C60.9344 15.9037 60.5097 16.3197 59.9637 16.623C59.4264 16.9263 58.8154 17.078 58.1307 17.078ZM58.1307 15.986C58.5727 15.986 58.967 15.8863 59.3137 15.687C59.669 15.479 59.9464 15.193 60.1457 14.829C60.345 14.4563 60.4447 14.0317 60.4447 13.555C60.4447 13.0783 60.345 12.658 60.1457 12.294C59.9464 11.9213 59.669 11.6353 59.3137 11.436C58.967 11.2367 58.5727 11.137 58.1307 11.137C57.6887 11.137 57.29 11.2367 56.9347 11.436C56.588 11.6353 56.3107 11.9213 56.1027 12.294C55.9034 12.658 55.8037 13.0783 55.8037 13.555C55.8037 14.0317 55.9034 14.4563 56.1027 14.829C56.3107 15.193 56.588 15.479 56.9347 15.687C57.29 15.8863 57.6887 15.986 58.1307 15.986ZM70.0598 10.11V16.064C70.0598 17.2687 69.7608 18.157 69.1628 18.729C68.5648 19.3097 67.6722 19.6 66.4848 19.6C65.8348 19.6 65.2152 19.509 64.6258 19.327C64.0365 19.1537 63.5598 18.9023 63.1958 18.573L63.7938 17.611C64.1145 17.8883 64.5088 18.105 64.9768 18.261C65.4535 18.4257 65.9432 18.508 66.4458 18.508C67.2518 18.508 67.8455 18.3173 68.2268 17.936C68.6168 17.5547 68.8118 16.974 68.8118 16.194V15.648C68.5172 16.0033 68.1532 16.272 67.7198 16.454C67.2952 16.6273 66.8315 16.714 66.3288 16.714C65.6702 16.714 65.0722 16.5753 64.5348 16.298C64.0062 16.012 63.5902 15.6177 63.2868 15.115C62.9835 14.6037 62.8318 14.023 62.8318 13.373C62.8318 12.723 62.9835 12.1467 63.2868 11.644C63.5902 11.1327 64.0062 10.7383 64.5348 10.461C65.0722 10.1837 65.6702 10.045 66.3288 10.045C66.8488 10.045 67.3298 10.1403 67.7718 10.331C68.2225 10.5217 68.5908 10.8033 68.8768 11.176V10.11H70.0598ZM66.4718 15.622C66.9225 15.622 67.3255 15.5267 67.6808 15.336C68.0448 15.1453 68.3265 14.881 68.5258 14.543C68.7338 14.1963 68.8378 13.8063 68.8378 13.373C68.8378 12.7057 68.6168 12.1683 68.1748 11.761C67.7328 11.345 67.1652 11.137 66.4718 11.137C65.7698 11.137 65.1978 11.345 64.7558 11.761C64.3138 12.1683 64.0928 12.7057 64.0928 13.373C64.0928 13.8063 64.1925 14.1963 64.3918 14.543C64.5998 14.881 64.8815 15.1453 65.2368 15.336C65.6008 15.5267 66.0125 15.622 66.4718 15.622ZM75.4991 17.078C74.7971 17.078 74.1688 16.9263 73.6141 16.623C73.0681 16.3197 72.6391 15.9037 72.3271 15.375C72.0151 14.8377 71.8591 14.231 71.8591 13.555C71.8591 12.879 72.0151 12.2767 72.3271 11.748C72.6391 11.2107 73.0681 10.7947 73.6141 10.5C74.1688 10.1967 74.7971 10.045 75.4991 10.045C76.1231 10.045 76.6778 10.1707 77.1631 10.422C77.6571 10.6733 78.0384 11.0373 78.3071 11.514L77.3581 12.125C77.1414 11.7957 76.8728 11.5487 76.5521 11.384C76.2314 11.2193 75.8761 11.137 75.4861 11.137C75.0354 11.137 74.6281 11.2367 74.2641 11.436C73.9088 11.6353 73.6271 11.9213 73.4191 12.294C73.2198 12.658 73.1201 13.0783 73.1201 13.555C73.1201 14.0403 73.2198 14.4693 73.4191 14.842C73.6271 15.206 73.9088 15.4877 74.2641 15.687C74.6281 15.8863 75.0354 15.986 75.4861 15.986C75.8761 15.986 76.2314 15.9037 76.5521 15.739C76.8728 15.5743 77.1414 15.3273 77.3581 14.998L78.3071 15.596C78.0384 16.0727 77.6571 16.441 77.1631 16.701C76.6778 16.9523 76.1231 17.078 75.4991 17.078ZM88.5419 10.045C89.4085 10.045 90.0932 10.2963 90.5959 10.799C91.1072 11.3017 91.3629 12.047 91.3629 13.035V17H90.1149V13.178C90.1149 12.5107 89.9589 12.008 89.6469 11.67C89.3435 11.332 88.9059 11.163 88.3339 11.163C87.7012 11.163 87.1985 11.3623 86.8259 11.761C86.4532 12.151 86.2669 12.7143 86.2669 13.451V17H85.0189V13.178C85.0189 12.5107 84.8629 12.008 84.5509 11.67C84.2475 11.332 83.8099 11.163 83.2379 11.163C82.6052 11.163 82.1025 11.3623 81.7299 11.761C81.3572 12.151 81.1709 12.7143 81.1709 13.451V17H79.9229V10.11H81.1189V11.137C81.3702 10.7817 81.6995 10.513 82.1069 10.331C82.5142 10.1403 82.9779 10.045 83.4979 10.045C84.0352 10.045 84.5119 10.1533 84.9279 10.37C85.3439 10.5867 85.6645 10.903 85.8899 11.319C86.1499 10.9203 86.5095 10.6083 86.9689 10.383C87.4369 10.1577 87.9612 10.045 88.5419 10.045ZM98.276 13.425C99.1687 13.6503 99.615 14.2093 99.615 15.102C99.615 15.7087 99.3854 16.1767 98.926 16.506C98.4754 16.8353 97.7994 17 96.898 17H93.583V10.11H96.781C97.5957 10.11 98.2327 10.266 98.692 10.578C99.1514 10.8813 99.381 11.3147 99.381 11.878C99.381 12.242 99.2814 12.5583 99.082 12.827C98.8914 13.087 98.6227 13.2863 98.276 13.425ZM94.805 13.074H96.677C97.1537 13.074 97.5134 12.9873 97.756 12.814C98.0074 12.6407 98.133 12.3893 98.133 12.06C98.133 11.4013 97.6477 11.072 96.677 11.072H94.805V13.074ZM96.807 16.038C97.327 16.038 97.717 15.9557 97.977 15.791C98.237 15.6263 98.367 15.3707 98.367 15.024C98.367 14.6687 98.2457 14.4043 98.003 14.231C97.769 14.0577 97.3964 13.971 96.885 13.971H94.805V16.038H96.807ZM104.519 17.078C103.835 17.078 103.219 16.9263 102.673 16.623C102.127 16.3197 101.698 15.9037 101.386 15.375C101.083 14.8377 100.931 14.231 100.931 13.555C100.931 12.879 101.083 12.2767 101.386 11.748C101.698 11.2107 102.127 10.7947 102.673 10.5C103.219 10.1967 103.835 10.045 104.519 10.045C105.204 10.045 105.815 10.1967 106.352 10.5C106.898 10.7947 107.323 11.2107 107.626 11.748C107.938 12.2767 108.094 12.879 108.094 13.555C108.094 14.231 107.938 14.8377 107.626 15.375C107.323 15.9037 106.898 16.3197 106.352 16.623C105.815 16.9263 105.204 17.078 104.519 17.078ZM104.519 15.986C104.961 15.986 105.356 15.8863 105.702 15.687C106.058 15.479 106.335 15.193 106.534 14.829C106.734 14.4563 106.833 14.0317 106.833 13.555C106.833 13.0783 106.734 12.658 106.534 12.294C106.335 11.9213 106.058 11.6353 105.702 11.436C105.356 11.2367 104.961 11.137 104.519 11.137C104.077 11.137 103.679 11.2367 103.323 11.436C102.977 11.6353 102.699 11.9213 102.491 12.294C102.292 12.658 102.192 13.0783 102.192 13.555C102.192 14.0317 102.292 14.4563 102.491 14.829C102.699 15.193 102.977 15.479 103.323 15.687C103.679 15.8863 104.077 15.986 104.519 15.986ZM119.771 10.11V17H118.523V11.202H114.636V17H113.388V10.11H119.771ZM125.137 17.078C124.452 17.078 123.837 16.9263 123.291 16.623C122.745 16.3197 122.316 15.9037 122.004 15.375C121.7 14.8377 121.549 14.231 121.549 13.555C121.549 12.879 121.7 12.2767 122.004 11.748C122.316 11.2107 122.745 10.7947 123.291 10.5C123.837 10.1967 124.452 10.045 125.137 10.045C125.821 10.045 126.432 10.1967 126.97 10.5C127.516 10.7947 127.94 11.2107 128.244 11.748C128.556 12.2767 128.712 12.879 128.712 13.555C128.712 14.231 128.556 14.8377 128.244 15.375C127.94 15.9037 127.516 16.3197 126.97 16.623C126.432 16.9263 125.821 17.078 125.137 17.078ZM125.137 15.986C125.579 15.986 125.973 15.8863 126.32 15.687C126.675 15.479 126.952 15.193 127.152 14.829C127.351 14.4563 127.451 14.0317 127.451 13.555C127.451 13.0783 127.351 12.658 127.152 12.294C126.952 11.9213 126.675 11.6353 126.32 11.436C125.973 11.2367 125.579 11.137 125.137 11.137C124.695 11.137 124.296 11.2367 123.941 11.436C123.594 11.6353 123.317 11.9213 123.109 12.294C122.909 12.658 122.81 13.0783 122.81 13.555C122.81 14.0317 122.909 14.4563 123.109 14.829C123.317 15.193 123.594 15.479 123.941 15.687C124.296 15.8863 124.695 15.986 125.137 15.986ZM136.378 10.11V17H135.13V11.202H132.166L132.088 12.736C132.045 13.6633 131.962 14.439 131.841 15.063C131.72 15.6783 131.52 16.1723 131.243 16.545C130.966 16.9177 130.58 17.104 130.086 17.104C129.861 17.104 129.605 17.065 129.319 16.987L129.397 15.934C129.51 15.96 129.614 15.973 129.709 15.973C130.056 15.973 130.316 15.8213 130.489 15.518C130.662 15.2147 130.775 14.855 130.827 14.439C130.879 14.023 130.927 13.4293 130.97 12.658L131.087 10.11H136.378ZM141.664 17.156C140.685 17.156 139.931 16.9177 139.402 16.441C138.882 15.9643 138.622 15.2883 138.622 14.413V10.11H139.87V12.775C140.095 12.5497 140.399 12.3763 140.78 12.255C141.17 12.125 141.59 12.06 142.041 12.06C142.899 12.06 143.566 12.2767 144.043 12.71C144.52 13.1433 144.758 13.7413 144.758 14.504C144.758 15.3273 144.485 15.9773 143.939 16.454C143.393 16.922 142.635 17.156 141.664 17.156ZM141.677 16.207C142.24 16.207 142.682 16.0553 143.003 15.752C143.324 15.4487 143.484 15.0413 143.484 14.53C143.484 14.0447 143.328 13.6633 143.016 13.386C142.704 13.1087 142.266 12.97 141.703 12.97C141.287 12.97 140.919 13.0523 140.598 13.217C140.277 13.3817 140.035 13.6113 139.87 13.906V14.517C139.87 15.0457 140.03 15.4617 140.351 15.765C140.672 16.0597 141.114 16.207 141.677 16.207ZM150.025 13.412C150.484 13.5333 150.84 13.7283 151.091 13.997C151.342 14.2657 151.468 14.5993 151.468 14.998C151.468 15.4053 151.329 15.7693 151.052 16.09C150.775 16.402 150.389 16.649 149.895 16.831C149.41 17.0043 148.864 17.091 148.257 17.091C147.746 17.091 147.243 17.026 146.749 16.896C146.264 16.7573 145.83 16.5623 145.449 16.311L145.826 15.362C146.155 15.57 146.532 15.7347 146.957 15.856C147.382 15.9687 147.811 16.025 148.244 16.025C148.833 16.025 149.301 15.9253 149.648 15.726C150.003 15.518 150.181 15.2407 150.181 14.894C150.181 14.5733 150.038 14.3263 149.752 14.153C149.475 13.9797 149.08 13.893 148.569 13.893H147.308V12.996H148.478C148.946 12.996 149.314 12.9137 149.583 12.749C149.852 12.5843 149.986 12.359 149.986 12.073C149.986 11.761 149.826 11.5183 149.505 11.345C149.193 11.1717 148.768 11.085 148.231 11.085C147.546 11.085 146.823 11.2627 146.06 11.618L145.722 10.656C146.563 10.2313 147.442 10.019 148.361 10.019C148.916 10.019 149.414 10.097 149.856 10.253C150.298 10.409 150.645 10.63 150.896 10.916C151.147 11.202 151.273 11.527 151.273 11.891C151.273 12.229 151.16 12.5323 150.935 12.801C150.71 13.0697 150.406 13.2733 150.025 13.412ZM156.316 17.078C155.632 17.078 155.016 16.9263 154.47 16.623C153.924 16.3197 153.495 15.9037 153.183 15.375C152.88 14.8377 152.728 14.231 152.728 13.555C152.728 12.879 152.88 12.2767 153.183 11.748C153.495 11.2107 153.924 10.7947 154.47 10.5C155.016 10.1967 155.632 10.045 156.316 10.045C157.001 10.045 157.612 10.1967 158.149 10.5C158.695 10.7947 159.12 11.2107 159.423 11.748C159.735 12.2767 159.891 12.879 159.891 13.555C159.891 14.231 159.735 14.8377 159.423 15.375C159.12 15.9037 158.695 16.3197 158.149 16.623C157.612 16.9263 157.001 17.078 156.316 17.078ZM156.316 15.986C156.758 15.986 157.153 15.8863 157.499 15.687C157.855 15.479 158.132 15.193 158.331 14.829C158.531 14.4563 158.63 14.0317 158.63 13.555C158.63 13.0783 158.531 12.658 158.331 12.294C158.132 11.9213 157.855 11.6353 157.499 11.436C157.153 11.2367 156.758 11.137 156.316 11.137C155.874 11.137 155.476 11.2367 155.12 11.436C154.774 11.6353 154.496 11.9213 154.288 12.294C154.089 12.658 153.989 13.0783 153.989 13.555C153.989 14.0317 154.089 14.4563 154.288 14.829C154.496 15.193 154.774 15.479 155.12 15.687C155.476 15.8863 155.874 15.986 156.316 15.986ZM166.386 13.425C167.279 13.6503 167.725 14.2093 167.725 15.102C167.725 15.7087 167.496 16.1767 167.036 16.506C166.586 16.8353 165.91 17 165.008 17H161.693V10.11H164.891C165.706 10.11 166.343 10.266 166.802 10.578C167.262 10.8813 167.491 11.3147 167.491 11.878C167.491 12.242 167.392 12.5583 167.192 12.827C167.002 13.087 166.733 13.2863 166.386 13.425ZM162.915 13.074H164.787C165.264 13.074 165.624 12.9873 165.866 12.814C166.118 12.6407 166.243 12.3893 166.243 12.06C166.243 11.4013 165.758 11.072 164.787 11.072H162.915V13.074ZM164.917 16.038C165.437 16.038 165.827 15.9557 166.087 15.791C166.347 15.6263 166.477 15.3707 166.477 15.024C166.477 14.6687 166.356 14.4043 166.113 14.231C165.879 14.0577 165.507 13.971 164.995 13.971H162.915V16.038H164.917ZM176.153 10.11V17H174.957V15.908C174.679 16.2893 174.328 16.5797 173.904 16.779C173.479 16.9783 173.011 17.078 172.5 17.078C171.832 17.078 171.234 16.9307 170.706 16.636C170.177 16.3413 169.761 15.9297 169.458 15.401C169.163 14.8637 169.016 14.2483 169.016 13.555C169.016 12.8617 169.163 12.2507 169.458 11.722C169.761 11.1933 170.177 10.7817 170.706 10.487C171.234 10.1923 171.832 10.045 172.5 10.045C172.994 10.045 173.449 10.1403 173.865 10.331C174.281 10.513 174.627 10.786 174.905 11.15V10.11H176.153ZM172.604 15.986C173.037 15.986 173.431 15.8863 173.787 15.687C174.142 15.479 174.419 15.193 174.619 14.829C174.818 14.4563 174.918 14.0317 174.918 13.555C174.918 13.0783 174.818 12.658 174.619 12.294C174.419 11.9213 174.142 11.6353 173.787 11.436C173.431 11.2367 173.037 11.137 172.604 11.137C172.162 11.137 171.763 11.2367 171.408 11.436C171.061 11.6353 170.784 11.9213 170.576 12.294C170.376 12.658 170.277 13.0783 170.277 13.555C170.277 14.0317 170.376 14.4563 170.576 14.829C170.784 15.193 171.061 15.479 171.408 15.687C171.763 15.8863 172.162 15.986 172.604 15.986ZM187.159 10.045C188.026 10.045 188.71 10.2963 189.213 10.799C189.724 11.3017 189.98 12.047 189.98 13.035V17H188.732V13.178C188.732 12.5107 188.576 12.008 188.264 11.67C187.961 11.332 187.523 11.163 186.951 11.163C186.318 11.163 185.816 11.3623 185.443 11.761C185.07 12.151 184.884 12.7143 184.884 13.451V17H183.636V13.178C183.636 12.5107 183.48 12.008 183.168 11.67C182.865 11.332 182.427 11.163 181.855 11.163C181.222 11.163 180.72 11.3623 180.347 11.761C179.974 12.151 179.788 12.7143 179.788 13.451V17H178.54V10.11H179.736V11.137C179.987 10.7817 180.317 10.513 180.724 10.331C181.131 10.1403 181.595 10.045 182.115 10.045C182.652 10.045 183.129 10.1533 183.545 10.37C183.961 10.5867 184.282 10.903 184.507 11.319C184.767 10.9203 185.127 10.6083 185.586 10.383C186.054 10.1577 186.578 10.045 187.159 10.045ZM195.281 15.986C196.105 15.986 196.768 15.7087 197.27 15.154L197.946 15.96C197.643 16.324 197.257 16.6013 196.789 16.792C196.33 16.9827 195.814 17.078 195.242 17.078C194.514 17.078 193.869 16.9307 193.305 16.636C192.742 16.3327 192.304 15.9123 191.992 15.375C191.689 14.8377 191.537 14.231 191.537 13.555C191.537 12.8877 191.685 12.2853 191.979 11.748C192.283 11.2107 192.694 10.7947 193.214 10.5C193.743 10.1967 194.337 10.045 194.995 10.045C195.619 10.045 196.187 10.188 196.698 10.474C197.21 10.7513 197.617 11.1457 197.92 11.657C198.224 12.1683 198.38 12.7577 198.388 13.425L192.915 14.491C193.089 14.9677 193.379 15.336 193.786 15.596C194.202 15.856 194.701 15.986 195.281 15.986ZM194.995 11.098C194.562 11.098 194.172 11.1977 193.825 11.397C193.487 11.5963 193.223 11.878 193.032 12.242C192.842 12.5973 192.746 13.0133 192.746 13.49V13.62L197.153 12.788C197.041 12.2853 196.789 11.878 196.399 11.566C196.009 11.254 195.541 11.098 194.995 11.098ZM205.961 10.11V17H204.713V11.202H201.749L201.671 12.736C201.628 13.6633 201.545 14.439 201.424 15.063C201.303 15.6783 201.103 16.1723 200.826 16.545C200.549 16.9177 200.163 17.104 199.669 17.104C199.444 17.104 199.188 17.065 198.902 16.987L198.98 15.934C199.093 15.96 199.197 15.973 199.292 15.973C199.639 15.973 199.899 15.8213 200.072 15.518C200.245 15.2147 200.358 14.855 200.41 14.439C200.462 14.023 200.51 13.4293 200.553 12.658L200.67 10.11H205.961ZM213.899 10.11V17H212.781V14.816H210.779H210.636L209.128 17H207.789L209.466 14.647C208.946 14.491 208.547 14.2353 208.27 13.88C207.993 13.516 207.854 13.0653 207.854 12.528C207.854 11.7393 208.123 11.1413 208.66 10.734C209.197 10.318 209.938 10.11 210.883 10.11H213.899ZM209.128 12.567C209.128 13.0263 209.271 13.3687 209.557 13.594C209.852 13.8107 210.289 13.919 210.87 13.919H212.781V11.202H210.922C209.726 11.202 209.128 11.657 209.128 12.567Z" fill="#4C483D"/>
</svg>
