<svg width="251" height="25" viewBox="0 0 251 25" fill="none" xmlns="http://www.w3.org/2000/svg">
<rect x="0.5" y="0.5" width="250" height="24" rx="12" fill="#FCF6E9" stroke="white"/>
<path d="M23.256 7.9V17H21.982V9.031H16.704V17H15.417V7.9H23.256ZM28.8368 17.078C28.1521 17.078 27.5368 16.9263 26.9908 16.623C26.4448 16.3197 26.0158 15.9037 25.7038 15.375C25.4004 14.8377 25.2488 14.231 25.2488 13.555C25.2488 12.879 25.4004 12.2767 25.7038 11.748C26.0158 11.2107 26.4448 10.7947 26.9908 10.5C27.5368 10.1967 28.1521 10.045 28.8368 10.045C29.5214 10.045 30.1324 10.1967 30.6698 10.5C31.2158 10.7947 31.6404 11.2107 31.9438 11.748C32.2558 12.2767 32.4118 12.879 32.4118 13.555C32.4118 14.231 32.2558 14.8377 31.9438 15.375C31.6404 15.9037 31.2158 16.3197 30.6698 16.623C30.1324 16.9263 29.5214 17.078 28.8368 17.078ZM28.8368 15.986C29.2788 15.986 29.6731 15.8863 30.0198 15.687C30.3751 15.479 30.6524 15.193 30.8518 14.829C31.0511 14.4563 31.1508 14.0317 31.1508 13.555C31.1508 13.0783 31.0511 12.658 30.8518 12.294C30.6524 11.9213 30.3751 11.6353 30.0198 11.436C29.6731 11.2367 29.2788 11.137 28.8368 11.137C28.3948 11.137 27.9961 11.2367 27.6408 11.436C27.2941 11.6353 27.0168 11.9213 26.8088 12.294C26.6094 12.658 26.5098 13.0783 26.5098 13.555C26.5098 14.0317 26.6094 14.4563 26.8088 14.829C27.0168 15.193 27.2941 15.479 27.6408 15.687C27.9961 15.8863 28.3948 15.986 28.8368 15.986ZM40.0781 10.11V17H38.8301V11.202H35.8661L35.7881 12.736C35.7448 13.6633 35.6624 14.439 35.5411 15.063C35.4198 15.6783 35.2204 16.1723 34.9431 16.545C34.6658 16.9177 34.2801 17.104 33.7861 17.104C33.5608 17.104 33.3051 17.065 33.0191 16.987L33.0971 15.934C33.2098 15.96 33.3138 15.973 33.4091 15.973C33.7558 15.973 34.0158 15.8213 34.1891 15.518C34.3624 15.2147 34.4751 14.855 34.5271 14.439C34.5791 14.023 34.6268 13.4293 34.6701 12.658L34.7871 10.11H40.0781ZM45.3642 17.156C44.3849 17.156 43.6309 16.9177 43.1022 16.441C42.5822 15.9643 42.3222 15.2883 42.3222 14.413V10.11H43.5702V12.775C43.7956 12.5497 44.0989 12.3763 44.4802 12.255C44.8702 12.125 45.2906 12.06 45.7412 12.06C46.5992 12.06 47.2666 12.2767 47.7432 12.71C48.2199 13.1433 48.4582 13.7413 48.4582 14.504C48.4582 15.3273 48.1852 15.9773 47.6392 16.454C47.0932 16.922 46.3349 17.156 45.3642 17.156ZM45.3772 16.207C45.9406 16.207 46.3826 16.0553 46.7032 15.752C47.0239 15.4487 47.1842 15.0413 47.1842 14.53C47.1842 14.0447 47.0282 13.6633 46.7162 13.386C46.4042 13.1087 45.9666 12.97 45.4032 12.97C44.9872 12.97 44.6189 13.0523 44.2982 13.217C43.9776 13.3817 43.7349 13.6113 43.5702 13.906V14.517C43.5702 15.0457 43.7306 15.4617 44.0512 15.765C44.3719 16.0597 44.8139 16.207 45.3772 16.207ZM53.7252 13.412C54.1845 13.5333 54.5398 13.7283 54.7912 13.997C55.0425 14.2657 55.1682 14.5993 55.1682 14.998C55.1682 15.4053 55.0295 15.7693 54.7522 16.09C54.4748 16.402 54.0892 16.649 53.5952 16.831C53.1098 17.0043 52.5638 17.091 51.9572 17.091C51.4458 17.091 50.9432 17.026 50.4492 16.896C49.9638 16.7573 49.5305 16.5623 49.1492 16.311L49.5262 15.362C49.8555 15.57 50.2325 15.7347 50.6572 15.856C51.0818 15.9687 51.5108 16.025 51.9442 16.025C52.5335 16.025 53.0015 15.9253 53.3482 15.726C53.7035 15.518 53.8812 15.2407 53.8812 14.894C53.8812 14.5733 53.7382 14.3263 53.4522 14.153C53.1748 13.9797 52.7805 13.893 52.2692 13.893H51.0082V12.996H52.1782C52.6462 12.996 53.0145 12.9137 53.2832 12.749C53.5518 12.5843 53.6862 12.359 53.6862 12.073C53.6862 11.761 53.5258 11.5183 53.2052 11.345C52.8932 11.1717 52.4685 11.085 51.9312 11.085C51.2465 11.085 50.5228 11.2627 49.7602 11.618L49.4222 10.656C50.2628 10.2313 51.1425 10.019 52.0612 10.019C52.6158 10.019 53.1142 10.097 53.5562 10.253C53.9982 10.409 54.3448 10.63 54.5962 10.916C54.8475 11.202 54.9732 11.527 54.9732 11.891C54.9732 12.229 54.8605 12.5323 54.6352 12.801C54.4098 13.0697 54.1065 13.2733 53.7252 13.412ZM60.0164 17.078C59.3318 17.078 58.7164 16.9263 58.1704 16.623C57.6244 16.3197 57.1954 15.9037 56.8834 15.375C56.5801 14.8377 56.4284 14.231 56.4284 13.555C56.4284 12.879 56.5801 12.2767 56.8834 11.748C57.1954 11.2107 57.6244 10.7947 58.1704 10.5C58.7164 10.1967 59.3318 10.045 60.0164 10.045C60.7011 10.045 61.3121 10.1967 61.8494 10.5C62.3954 10.7947 62.8201 11.2107 63.1234 11.748C63.4354 12.2767 63.5914 12.879 63.5914 13.555C63.5914 14.231 63.4354 14.8377 63.1234 15.375C62.8201 15.9037 62.3954 16.3197 61.8494 16.623C61.3121 16.9263 60.7011 17.078 60.0164 17.078ZM60.0164 15.986C60.4584 15.986 60.8528 15.8863 61.1994 15.687C61.5548 15.479 61.8321 15.193 62.0314 14.829C62.2308 14.4563 62.3304 14.0317 62.3304 13.555C62.3304 13.0783 62.2308 12.658 62.0314 12.294C61.8321 11.9213 61.5548 11.6353 61.1994 11.436C60.8528 11.2367 60.4584 11.137 60.0164 11.137C59.5744 11.137 59.1758 11.2367 58.8204 11.436C58.4738 11.6353 58.1964 11.9213 57.9884 12.294C57.7891 12.658 57.6894 13.0783 57.6894 13.555C57.6894 14.0317 57.7891 14.4563 57.9884 14.829C58.1964 15.193 58.4738 15.479 58.8204 15.687C59.1758 15.8863 59.5744 15.986 60.0164 15.986ZM70.0866 13.425C70.9792 13.6503 71.4256 14.2093 71.4256 15.102C71.4256 15.7087 71.1959 16.1767 70.7366 16.506C70.2859 16.8353 69.6099 17 68.7086 17H65.3936V10.11H68.5916C69.4062 10.11 70.0432 10.266 70.5026 10.578C70.9619 10.8813 71.1916 11.3147 71.1916 11.878C71.1916 12.242 71.0919 12.5583 70.8926 12.827C70.7019 13.087 70.4332 13.2863 70.0866 13.425ZM66.6156 13.074H68.4876C68.9642 13.074 69.3239 12.9873 69.5666 12.814C69.8179 12.6407 69.9436 12.3893 69.9436 12.06C69.9436 11.4013 69.4582 11.072 68.4876 11.072H66.6156V13.074ZM68.6176 16.038C69.1376 16.038 69.5276 15.9557 69.7876 15.791C70.0476 15.6263 70.1776 15.3707 70.1776 15.024C70.1776 14.6687 70.0562 14.4043 69.8136 14.231C69.5796 14.0577 69.2069 13.971 68.6956 13.971H66.6156V16.038H68.6176ZM79.8529 10.11V17H78.6569V15.908C78.3796 16.2893 78.0286 16.5797 77.6039 16.779C77.1793 16.9783 76.7113 17.078 76.1999 17.078C75.5326 17.078 74.9346 16.9307 74.4059 16.636C73.8773 16.3413 73.4613 15.9297 73.1579 15.401C72.8633 14.8637 72.7159 14.2483 72.7159 13.555C72.7159 12.8617 72.8633 12.2507 73.1579 11.722C73.4613 11.1933 73.8773 10.7817 74.4059 10.487C74.9346 10.1923 75.5326 10.045 76.1999 10.045C76.6939 10.045 77.1489 10.1403 77.5649 10.331C77.9809 10.513 78.3276 10.786 78.6049 11.15V10.11H79.8529ZM76.3039 15.986C76.7373 15.986 77.1316 15.8863 77.4869 15.687C77.8423 15.479 78.1196 15.193 78.3189 14.829C78.5183 14.4563 78.6179 14.0317 78.6179 13.555C78.6179 13.0783 78.5183 12.658 78.3189 12.294C78.1196 11.9213 77.8423 11.6353 77.4869 11.436C77.1316 11.2367 76.7373 11.137 76.3039 11.137C75.8619 11.137 75.4633 11.2367 75.1079 11.436C74.7613 11.6353 74.4839 11.9213 74.2759 12.294C74.0766 12.658 73.9769 13.0783 73.9769 13.555C73.9769 14.0317 74.0766 14.4563 74.2759 14.829C74.4839 15.193 74.7613 15.479 75.1079 15.687C75.4633 15.8863 75.8619 15.986 76.3039 15.986ZM90.8593 10.045C91.7259 10.045 92.4106 10.2963 92.9133 10.799C93.4246 11.3017 93.6803 12.047 93.6803 13.035V17H92.4323V13.178C92.4323 12.5107 92.2763 12.008 91.9643 11.67C91.6609 11.332 91.2233 11.163 90.6513 11.163C90.0186 11.163 89.5159 11.3623 89.1433 11.761C88.7706 12.151 88.5843 12.7143 88.5843 13.451V17H87.3363V13.178C87.3363 12.5107 87.1803 12.008 86.8683 11.67C86.5649 11.332 86.1273 11.163 85.5553 11.163C84.9226 11.163 84.4199 11.3623 84.0473 11.761C83.6746 12.151 83.4883 12.7143 83.4883 13.451V17H82.2403V10.11H83.4363V11.137C83.6876 10.7817 84.0169 10.513 84.4243 10.331C84.8316 10.1403 85.2953 10.045 85.8153 10.045C86.3526 10.045 86.8293 10.1533 87.2453 10.37C87.6613 10.5867 87.9819 10.903 88.2073 11.319C88.4673 10.9203 88.8269 10.6083 89.2863 10.383C89.7543 10.1577 90.2786 10.045 90.8593 10.045ZM98.9814 15.986C99.8047 15.986 100.468 15.7087 100.97 15.154L101.646 15.96C101.343 16.324 100.957 16.6013 100.489 16.792C100.03 16.9827 99.5144 17.078 98.9424 17.078C98.2144 17.078 97.5687 16.9307 97.0054 16.636C96.4421 16.3327 96.0044 15.9123 95.6924 15.375C95.3891 14.8377 95.2374 14.231 95.2374 13.555C95.2374 12.8877 95.3847 12.2853 95.6794 11.748C95.9827 11.2107 96.3944 10.7947 96.9144 10.5C97.4431 10.1967 98.0367 10.045 98.6954 10.045C99.3194 10.045 99.8871 10.188 100.398 10.474C100.91 10.7513 101.317 11.1457 101.62 11.657C101.924 12.1683 102.08 12.7577 102.088 13.425L96.6154 14.491C96.7887 14.9677 97.0791 15.336 97.4864 15.596C97.9024 15.856 98.4007 15.986 98.9814 15.986ZM98.6954 11.098C98.2621 11.098 97.8721 11.1977 97.5254 11.397C97.1874 11.5963 96.9231 11.878 96.7324 12.242C96.5417 12.5973 96.4464 13.0133 96.4464 13.49V13.62L100.853 12.788C100.741 12.2853 100.489 11.878 100.099 11.566C99.7094 11.254 99.2414 11.098 98.6954 11.098ZM109.661 10.11V17H108.413V11.202H105.449L105.371 12.736C105.328 13.6633 105.245 14.439 105.124 15.063C105.003 15.6783 104.803 16.1723 104.526 16.545C104.249 16.9177 103.863 17.104 103.369 17.104C103.144 17.104 102.888 17.065 102.602 16.987L102.68 15.934C102.793 15.96 102.897 15.973 102.992 15.973C103.339 15.973 103.599 15.8213 103.772 15.518C103.945 15.2147 104.058 14.855 104.11 14.439C104.162 14.023 104.21 13.4293 104.253 12.658L104.37 10.11H109.661ZM114.947 17.156C113.968 17.156 113.214 16.9177 112.685 16.441C112.165 15.9643 111.905 15.2883 111.905 14.413V10.11H113.153V12.775C113.379 12.5497 113.682 12.3763 114.063 12.255C114.453 12.125 114.874 12.06 115.324 12.06C116.182 12.06 116.85 12.2767 117.326 12.71C117.803 13.1433 118.041 13.7413 118.041 14.504C118.041 15.3273 117.768 15.9773 117.222 16.454C116.676 16.922 115.918 17.156 114.947 17.156ZM114.96 16.207C115.524 16.207 115.966 16.0553 116.286 15.752C116.607 15.4487 116.767 15.0413 116.767 14.53C116.767 14.0447 116.611 13.6633 116.299 13.386C115.987 13.1087 115.55 12.97 114.986 12.97C114.57 12.97 114.202 13.0523 113.881 13.217C113.561 13.3817 113.318 13.6113 113.153 13.906V14.517C113.153 15.0457 113.314 15.4617 113.634 15.765C113.955 16.0597 114.397 16.207 114.96 16.207ZM122.682 17.078C121.98 17.078 121.351 16.9263 120.797 16.623C120.251 16.3197 119.822 15.9037 119.51 15.375C119.198 14.8377 119.042 14.231 119.042 13.555C119.042 12.879 119.198 12.2767 119.51 11.748C119.822 11.2107 120.251 10.7947 120.797 10.5C121.351 10.1967 121.98 10.045 122.682 10.045C123.306 10.045 123.86 10.1707 124.346 10.422C124.84 10.6733 125.221 11.0373 125.49 11.514L124.541 12.125C124.324 11.7957 124.055 11.5487 123.735 11.384C123.414 11.2193 123.059 11.137 122.669 11.137C122.218 11.137 121.811 11.2367 121.447 11.436C121.091 11.6353 120.81 11.9213 120.602 12.294C120.402 12.658 120.303 13.0783 120.303 13.555C120.303 14.0403 120.402 14.4693 120.602 14.842C120.81 15.206 121.091 15.4877 121.447 15.687C121.811 15.8863 122.218 15.986 122.669 15.986C123.059 15.986 123.414 15.9037 123.735 15.739C124.055 15.5743 124.324 15.3273 124.541 14.998L125.49 15.596C125.221 16.0727 124.84 16.441 124.346 16.701C123.86 16.9523 123.306 17.078 122.682 17.078ZM129.783 14.088H128.353V17H127.105V10.11H128.353V13.022H129.809L132.045 10.11H133.384L130.771 13.425L133.566 17H132.097L129.783 14.088ZM137.598 17.078C136.913 17.078 136.298 16.9263 135.752 16.623C135.206 16.3197 134.777 15.9037 134.465 15.375C134.161 14.8377 134.01 14.231 134.01 13.555C134.01 12.879 134.161 12.2767 134.465 11.748C134.777 11.2107 135.206 10.7947 135.752 10.5C136.298 10.1967 136.913 10.045 137.598 10.045C138.282 10.045 138.893 10.1967 139.431 10.5C139.977 10.7947 140.401 11.2107 140.705 11.748C141.017 12.2767 141.173 12.879 141.173 13.555C141.173 14.231 141.017 14.8377 140.705 15.375C140.401 15.9037 139.977 16.3197 139.431 16.623C138.893 16.9263 138.282 17.078 137.598 17.078ZM137.598 15.986C138.04 15.986 138.434 15.8863 138.781 15.687C139.136 15.479 139.413 15.193 139.613 14.829C139.812 14.4563 139.912 14.0317 139.912 13.555C139.912 13.0783 139.812 12.658 139.613 12.294C139.413 11.9213 139.136 11.6353 138.781 11.436C138.434 11.2367 138.04 11.137 137.598 11.137C137.156 11.137 136.757 11.2367 136.402 11.436C136.055 11.6353 135.778 11.9213 135.57 12.294C135.37 12.658 135.271 13.0783 135.271 13.555C135.271 14.0317 135.37 14.4563 135.57 14.829C135.778 15.193 136.055 15.479 136.402 15.687C136.757 15.8863 137.156 15.986 137.598 15.986ZM146.056 15.986C146.879 15.986 147.542 15.7087 148.045 15.154L148.721 15.96C148.417 16.324 148.032 16.6013 147.564 16.792C147.104 16.9827 146.589 17.078 146.017 17.078C145.289 17.078 144.643 16.9307 144.08 16.636C143.516 16.3327 143.079 15.9123 142.767 15.375C142.463 14.8377 142.312 14.231 142.312 13.555C142.312 12.8877 142.459 12.2853 142.754 11.748C143.057 11.2107 143.469 10.7947 143.989 10.5C144.517 10.1967 145.111 10.045 145.77 10.045C146.394 10.045 146.961 10.188 147.473 10.474C147.984 10.7513 148.391 11.1457 148.695 11.657C148.998 12.1683 149.154 12.7577 149.163 13.425L143.69 14.491C143.863 14.9677 144.153 15.336 144.561 15.596C144.977 15.856 145.475 15.986 146.056 15.986ZM145.77 11.098C145.336 11.098 144.946 11.1977 144.6 11.397C144.262 11.5963 143.997 11.878 143.807 12.242C143.616 12.5973 143.521 13.0133 143.521 13.49V13.62L147.928 12.788C147.815 12.2853 147.564 11.878 147.174 11.566C146.784 11.254 146.316 11.098 145.77 11.098ZM157.429 17.078C156.727 17.078 156.098 16.9263 155.544 16.623C154.998 16.3197 154.569 15.9037 154.257 15.375C153.945 14.8377 153.789 14.231 153.789 13.555C153.789 12.879 153.945 12.2767 154.257 11.748C154.569 11.2107 154.998 10.7947 155.544 10.5C156.098 10.1967 156.727 10.045 157.429 10.045C158.053 10.045 158.607 10.1707 159.093 10.422C159.587 10.6733 159.968 11.0373 160.237 11.514L159.288 12.125C159.071 11.7957 158.802 11.5487 158.482 11.384C158.161 11.2193 157.806 11.137 157.416 11.137C156.965 11.137 156.558 11.2367 156.194 11.436C155.838 11.6353 155.557 11.9213 155.349 12.294C155.149 12.658 155.05 13.0783 155.05 13.555C155.05 14.0403 155.149 14.4693 155.349 14.842C155.557 15.206 155.838 15.4877 156.194 15.687C156.558 15.8863 156.965 15.986 157.416 15.986C157.806 15.986 158.161 15.9037 158.482 15.739C158.802 15.5743 159.071 15.3273 159.288 14.998L160.237 15.596C159.968 16.0727 159.587 16.441 159.093 16.701C158.607 16.9523 158.053 17.078 157.429 17.078ZM164.702 17.078C164.017 17.078 163.402 16.9263 162.856 16.623C162.31 16.3197 161.881 15.9037 161.569 15.375C161.266 14.8377 161.114 14.231 161.114 13.555C161.114 12.879 161.266 12.2767 161.569 11.748C161.881 11.2107 162.31 10.7947 162.856 10.5C163.402 10.1967 164.017 10.045 164.702 10.045C165.387 10.045 165.998 10.1967 166.535 10.5C167.081 10.7947 167.506 11.2107 167.809 11.748C168.121 12.2767 168.277 12.879 168.277 13.555C168.277 14.231 168.121 14.8377 167.809 15.375C167.506 15.9037 167.081 16.3197 166.535 16.623C165.998 16.9263 165.387 17.078 164.702 17.078ZM164.702 15.986C165.144 15.986 165.538 15.8863 165.885 15.687C166.24 15.479 166.518 15.193 166.717 14.829C166.916 14.4563 167.016 14.0317 167.016 13.555C167.016 13.0783 166.916 12.658 166.717 12.294C166.518 11.9213 166.24 11.6353 165.885 11.436C165.538 11.2367 165.144 11.137 164.702 11.137C164.26 11.137 163.861 11.2367 163.506 11.436C163.159 11.6353 162.882 11.9213 162.674 12.294C162.475 12.658 162.375 13.0783 162.375 13.555C162.375 14.0317 162.475 14.4563 162.674 14.829C162.882 15.193 163.159 15.479 163.506 15.687C163.861 15.8863 164.26 15.986 164.702 15.986ZM175.149 11.202H171.327V17H170.079V10.11H175.149V11.202ZM181.897 10.11V17H180.649V11.202H177.685L177.607 12.736C177.564 13.6633 177.482 14.439 177.36 15.063C177.239 15.6783 177.04 16.1723 176.762 16.545C176.485 16.9177 176.099 17.104 175.605 17.104C175.38 17.104 175.124 17.065 174.838 16.987L174.916 15.934C175.029 15.96 175.133 15.973 175.228 15.973C175.575 15.973 175.835 15.8213 176.008 15.518C176.182 15.2147 176.294 14.855 176.346 14.439C176.398 14.023 176.446 13.4293 176.489 12.658L176.606 10.11H181.897ZM190.785 10.11V17H189.589V15.908C189.311 16.2893 188.96 16.5797 188.536 16.779C188.111 16.9783 187.643 17.078 187.132 17.078C186.464 17.078 185.866 16.9307 185.338 16.636C184.809 16.3413 184.393 15.9297 184.09 15.401C183.795 14.8637 183.648 14.2483 183.648 13.555C183.648 12.8617 183.795 12.2507 184.09 11.722C184.393 11.1933 184.809 10.7817 185.338 10.487C185.866 10.1923 186.464 10.045 187.132 10.045C187.626 10.045 188.081 10.1403 188.497 10.331C188.913 10.513 189.259 10.786 189.537 11.15V10.11H190.785ZM187.236 15.986C187.669 15.986 188.063 15.8863 188.419 15.687C188.774 15.479 189.051 15.193 189.251 14.829C189.45 14.4563 189.55 14.0317 189.55 13.555C189.55 13.0783 189.45 12.658 189.251 12.294C189.051 11.9213 188.774 11.6353 188.419 11.436C188.063 11.2367 187.669 11.137 187.236 11.137C186.794 11.137 186.395 11.2367 186.04 11.436C185.693 11.6353 185.416 11.9213 185.208 12.294C185.008 12.658 184.909 13.0783 184.909 13.555C184.909 14.0317 185.008 14.4563 185.208 14.829C185.416 15.193 185.693 15.479 186.04 15.687C186.395 15.8863 186.794 15.986 187.236 15.986ZM202.987 10.11V17H193.172V10.11H194.42V15.908H197.462V10.11H198.71V15.908H201.739V10.11H202.987ZM208.491 15.986C209.315 15.986 209.978 15.7087 210.48 15.154L211.156 15.96C210.853 16.324 210.467 16.6013 209.999 16.792C209.54 16.9827 209.024 17.078 208.452 17.078C207.724 17.078 207.079 16.9307 206.515 16.636C205.952 16.3327 205.514 15.9123 205.202 15.375C204.899 14.8377 204.747 14.231 204.747 13.555C204.747 12.8877 204.895 12.2853 205.189 11.748C205.493 11.2107 205.904 10.7947 206.424 10.5C206.953 10.1967 207.547 10.045 208.205 10.045C208.829 10.045 209.397 10.188 209.908 10.474C210.42 10.7513 210.827 11.1457 211.13 11.657C211.434 12.1683 211.59 12.7577 211.598 13.425L206.125 14.491C206.299 14.9677 206.589 15.336 206.996 15.596C207.412 15.856 207.911 15.986 208.491 15.986ZM208.205 11.098C207.772 11.098 207.382 11.1977 207.035 11.397C206.697 11.5963 206.433 11.878 206.242 12.242C206.052 12.5973 205.956 13.0133 205.956 13.49V13.62L210.363 12.788C210.251 12.2853 209.999 11.878 209.609 11.566C209.219 11.254 208.751 11.098 208.205 11.098ZM213.37 10.11H214.618V13.035H218.544V10.11H219.792V17H218.544V14.114H214.618V17H213.37V10.11ZM228.498 10.11V17H227.302V15.986C227.05 16.3327 226.721 16.6013 226.314 16.792C225.906 16.9827 225.46 17.078 224.975 17.078C224.056 17.078 223.332 16.8267 222.804 16.324C222.275 15.8127 222.011 15.063 222.011 14.075V10.11H223.259V13.932C223.259 14.5993 223.419 15.1063 223.74 15.453C224.06 15.791 224.52 15.96 225.118 15.96C225.776 15.96 226.296 15.7607 226.678 15.362C227.059 14.9633 227.25 14.4 227.25 13.672V10.11H228.498ZM234.009 15.986C234.832 15.986 235.495 15.7087 235.998 15.154L236.674 15.96C236.37 16.324 235.985 16.6013 235.517 16.792C235.057 16.9827 234.542 17.078 233.97 17.078C233.242 17.078 232.596 16.9307 232.033 16.636C231.469 16.3327 231.032 15.9123 230.72 15.375C230.416 14.8377 230.265 14.231 230.265 13.555C230.265 12.8877 230.412 12.2853 230.707 11.748C231.01 11.2107 231.422 10.7947 231.942 10.5C232.47 10.1967 233.064 10.045 233.723 10.045C234.347 10.045 234.914 10.188 235.426 10.474C235.937 10.7513 236.344 11.1457 236.648 11.657C236.951 12.1683 237.107 12.7577 237.116 13.425L231.643 14.491C231.816 14.9677 232.106 15.336 232.514 15.596C232.93 15.856 233.428 15.986 234.009 15.986ZM233.723 11.098C233.289 11.098 232.899 11.1977 232.553 11.397C232.215 11.5963 231.95 11.878 231.76 12.242C231.569 12.5973 231.474 13.0133 231.474 13.49V13.62L235.881 12.788C235.768 12.2853 235.517 11.878 235.127 11.566C234.737 11.254 234.269 11.098 233.723 11.098Z" fill="#4C483D"/>
</svg>
