<svg width="404" height="404" viewBox="0 0 404 404" fill="none" xmlns="http://www.w3.org/2000/svg">
<path d="M203.368 399.477C313.14 399.477 402.128 311.512 402.128 203.002C402.128 94.4918 313.14 6.52698 203.368 6.52698C93.5959 6.52698 4.60803 94.4918 4.60803 203.002C4.60803 311.512 93.5959 399.477 203.368 399.477Z" fill="#FAF1E2"/>
<path d="M387.115 236.166H14.8399L11.7885 250.526H387.115V236.166Z" fill="#C36874"/>
<path d="M378.629 267.171H347.95L344.034 314.821L351.214 321.022L378.629 267.171Z" fill="#FAF1E2"/>
<path d="M389.073 216.583H7.21936V230.943H389.073V216.583Z" fill="#C36874"/>
<path d="M380.588 256.4H21.2615L18.3162 268.802H380.588V256.4Z" fill="#EA6F7F"/>
<path d="M374.06 273.372H26.3878L23.538 285.774H374.06V273.372Z" fill="#FF99A6"/>
<path d="M372.755 292.301H38.031L35.2874 294.259H372.755V292.301Z" fill="#FF99A6"/>
<path d="M390.379 189.168H9.83032V213.972H390.379V189.168Z" fill="#C36874"/>
<path d="M11.7885 185.252H388.42V170.239H11.7885V185.252Z" fill="#C36874"/>
<path d="M388.42 170.239V168.933V167.628H11.7885V170.239H200.104H388.42Z" fill="#FF99A6"/>
<path d="M288.551 379.896L234.352 338.718L228.825 336.488V390.013L288.551 379.896Z" fill="#C36874"/>
<path d="M156.371 390.013H228.825L196.514 361.945L185.091 369.778L161.898 351.121L156.371 348.891V390.013Z" fill="#C36874"/>
<path d="M197.167 363.251L228.825 341.058V362.598V376.959V390.013L197.167 363.251Z" fill="#F5A99C"/>
<path d="M119.491 381.528L156.371 353.786V375.326V390.013L126.018 386.423L119.491 381.528Z" fill="#F5A99C"/>
<path fill-rule="evenodd" clip-rule="evenodd" d="M229.151 324.413L183.786 356.724L183.792 356.809L157.35 336.488L110.026 372.063L119.165 379.243L157.538 349.93L184.765 370.431L229.151 337.468V324.413ZM229.152 324.413L290.836 373.042L282.35 379.243L229.152 337.468V324.413Z" fill="#3B2915"/>
<path d="M289.573 24.4631L235.375 79.4532L229.848 82.4315V10.9517L289.573 24.4631Z" fill="#C36874"/>
<path d="M157.393 10.9507H229.847L197.537 48.4341L186.114 37.9736L162.92 62.8898L157.393 65.8682V10.9507Z" fill="#C36874"/>
<path d="M198.19 46.6914L229.848 76.3293V47.5631V28.3856V10.9515L198.19 46.6914Z" fill="#F5A99C"/>
<path d="M120.513 22.2836L157.393 59.3311V30.5648V10.9514L127.041 15.7458L120.513 22.2836Z" fill="#F5A99C"/>
<path fill-rule="evenodd" clip-rule="evenodd" d="M230.174 98.5571L184.808 55.4077L184.815 55.2934L158.373 82.4314L111.049 34.9234L120.187 25.3347L158.56 64.4804L185.788 37.1029V37.1019L230.174 81.123V98.5571ZM230.174 98.5571L291.858 33.6151L283.373 25.3339L230.174 81.123V98.5571Z" fill="#3B2915"/>
<path fill-rule="evenodd" clip-rule="evenodd" d="M201.736 403.394C313.131 403.394 403.433 313.091 403.433 201.697C403.433 90.3029 313.131 0 201.736 0C90.342 0 0.0391846 90.3029 0.0391846 201.697C0.0391846 313.091 90.342 403.394 201.736 403.394ZM201.736 388.988C305.174 388.988 389.026 305.135 389.026 201.698C389.026 98.2603 305.174 14.4077 201.736 14.4077C98.299 14.4077 14.4458 98.2603 14.4458 201.698C14.4458 305.135 98.299 388.988 201.736 388.988Z" fill="#3B2915"/>
<path d="M234.373 187.989H161.266L144.948 172.976H256.567L234.373 187.989Z" fill="#C36874"/>
<path d="M211.963 212.141H187.594L182.154 191.906H219.36L211.963 212.141Z" fill="#C36874"/>
<path d="M204.4 270.313C224.704 256.385 248.075 247.16 272.691 243.357C297.307 239.554 322.503 241.276 346.314 248.388L332.611 279.091C314.585 273.707 277.16 285.506 258.525 288.385C239.89 291.264 219.77 299.382 204.4 309.926V270.313Z" fill="#8E6E4A"/>
<path d="M205.268 270.422C184.964 256.441 161.594 247.182 136.978 243.364C112.362 239.547 87.166 241.275 63.355 248.414L79.565 280.614C97.591 275.21 134.473 284.843 153.107 287.733C171.742 290.622 189.898 301.627 205.268 312.21V270.422Z" fill="#8E6E4A"/>
<path d="M338.628 268.725C317.99 261.81 296.002 259.909 274.484 263.179C252.966 266.449 232.536 274.796 214.884 287.53L216.342 289.552C233.673 277.05 253.732 268.854 274.859 265.644C295.986 262.433 317.573 264.3 337.836 271.089L338.628 268.725Z" fill="#FAF1E2"/>
<path d="M70.719 268.725C91.357 261.81 113.345 259.909 134.863 263.179C156.381 266.449 176.811 274.796 194.463 287.53L193.005 289.552C175.674 277.05 155.615 268.854 134.488 265.644C113.362 262.433 91.774 264.3 71.512 271.089L70.719 268.725Z" fill="#FAF1E2"/>
<path d="M269.117 107.582L343.375 104.312L345.992 258.313L274.517 253.79L206.963 283.816L205 217.442L211.542 141.913L269.117 107.582Z" fill="#FAF1E2"/>
<path d="M141.031 107.576L66.945 104.312L64.334 258.033L135.483 254.769L203.042 283.49L205 217.237L198.473 141.845L141.031 107.576Z" fill="#FAF1E2"/>
<path d="M146.253 173.281V228.555C146.253 231.316 148.492 233.555 151.253 233.555H155.613C158.375 233.555 160.613 231.316 160.613 228.555V173.281C160.613 170.519 158.375 168.281 155.613 168.281H151.253C148.492 168.281 146.253 170.519 146.253 173.281Z" fill="#7F9086"/>
<path d="M89.465 181.114V228.555C89.465 231.316 91.7035 233.555 94.465 233.555H98.8253C101.587 233.555 103.825 231.316 103.825 228.555V181.114C103.825 178.352 101.587 176.114 98.8253 176.114H94.465C91.7035 176.114 89.465 178.352 89.465 181.114Z" fill="#7F9086"/>
<path d="M110.352 203.307V228.555C110.352 231.316 112.591 233.555 115.352 233.555H119.712C122.474 233.555 124.712 231.316 124.712 228.555V203.307C124.712 200.546 122.474 198.307 119.712 198.307H115.352C112.591 198.307 110.352 200.546 110.352 203.307Z" fill="#D29F80"/>
<path d="M167.141 214.404V228.555C167.141 231.316 169.38 233.555 172.141 233.555H175.196C177.957 233.555 180.196 231.316 180.196 228.555V214.404C180.196 211.642 177.957 209.404 175.196 209.404H172.141C169.38 209.404 167.141 211.642 167.141 214.404Z" fill="#D29F80"/>
<path d="M124.713 139.338V228.555C124.713 231.316 126.952 233.555 129.713 233.555H134.073C136.835 233.555 139.073 231.316 139.073 228.555V139.338C139.073 136.577 136.835 134.338 134.073 134.338H129.713C126.952 134.338 124.713 136.577 124.713 139.338Z" fill="#6F7468"/>
<path d="M243.838 201.571C249.065 201.571 253.303 197.333 253.303 192.106C253.303 186.879 249.065 182.641 243.838 182.641C238.611 182.641 234.373 186.879 234.373 192.106C234.373 197.333 238.611 201.571 243.838 201.571Z" fill="#3B2915"/>
<path d="M277.128 201.571C282.355 201.571 286.593 197.333 286.593 192.106C286.593 186.879 282.355 182.641 277.128 182.641C271.901 182.641 267.663 186.879 267.663 192.106C267.663 197.333 271.901 201.571 277.128 201.571Z" fill="#3B2915"/>
<path d="M272.232 185.905H244.164C241.28 185.905 238.942 188.243 238.942 191.127V191.127C238.942 194.011 241.28 196.349 244.164 196.349H272.232C275.116 196.349 277.454 194.011 277.454 191.127V191.127C277.454 188.243 275.116 185.905 272.232 185.905Z" fill="#3B2915"/>
<path d="M309.065 151.301L277.214 183.44C275.184 185.488 275.199 188.795 277.247 190.825L277.247 190.825C279.295 192.855 282.602 192.84 284.632 190.792L316.483 158.653C318.513 156.605 318.498 153.298 316.45 151.268L316.45 151.268C314.401 149.238 311.095 149.253 309.065 151.301Z" fill="#3B2915"/>
<path d="M321.997 143.839C323.15 143.814 324.086 144.768 324.039 145.92L323.014 171.021C322.942 172.793 320.77 173.602 319.557 172.308L296.513 147.727C295.329 146.465 296.199 144.397 297.928 144.36L321.997 143.839Z" fill="#3B2915"/>
<path d="M312.049 219.195H240.248C237.364 219.195 235.026 221.533 235.026 224.417V224.417C235.026 227.301 237.364 229.639 240.248 229.639H312.049C314.933 229.639 317.271 227.301 317.271 224.417C317.271 221.533 314.933 219.195 312.049 219.195Z" fill="#3B2915"/>
<path d="M57.481 97.521L57.481 263.845C57.481 265.502 58.8241 266.845 60.481 266.845H67.5358C69.1926 266.845 70.5358 265.502 70.5358 263.845L70.5358 97.521C70.5358 95.8641 69.1926 94.521 67.5358 94.521H60.481C58.8241 94.521 57.481 95.8641 57.481 97.521Z" fill="#3B2915"/>
<path d="M198.655 295.671V145.36C198.655 143.703 199.998 142.36 201.655 142.36H209.344C211 142.36 212.344 143.703 212.344 145.36V295.671H198.655Z" fill="#3B2915"/>
<path d="M204.674 157.527C204.674 158.933 202.832 159.461 202.087 158.268C194.138 145.549 183.239 134.934 170.315 127.322L164.823 124.088C146.468 113.277 125.554 107.576 104.252 107.576H61.1331C59.4761 107.576 58.1331 106.233 58.1331 104.576V97.5704C58.1331 95.8943 59.5061 94.5434 61.1821 94.5708L110.958 95.3838C128.823 95.6756 146.398 99.9533 162.398 107.905L169.926 111.646C183.922 118.6 195.832 129.128 204.453 142.164C204.597 142.382 204.674 142.637 204.674 142.898V157.527Z" fill="#3B2915"/>
<path d="M201.153 277.894C181.439 264.957 159.094 256.567 135.737 253.333C112.38 250.1 88.596 252.104 66.109 259.201L69.337 269.429C90.307 262.811 112.485 260.943 134.266 263.958C156.047 266.973 176.884 274.796 195.268 286.861L201.153 277.894Z" fill="#3B2915"/>
<path d="M190.134 294.836C158.087 275.234 119.565 269.167 83.0439 277.967L85.8329 289.54C85.9619 290.077 86.5029 290.407 87.0409 290.282C119.945 282.622 154.558 288.202 183.401 305.844L190.134 294.836Z" fill="#3B2915"/>
<path d="M186.107 286.518L180.196 289.365L156.044 292.302C166.8 297.25 176.649 304.094 185.02 312.466L185.158 312.604C185.533 312.979 186.042 313.19 186.572 313.19H206.305V301.44H194.23L190.586 298.226C189.905 297.625 190.313 296.501 191.221 296.476L200.757 296.218L201.736 280.879L186.397 280.553L187.411 282.327C188.274 283.838 187.675 285.763 186.107 286.518Z" fill="#3B2915"/>
<path d="M353.173 97.5219L353.173 263.846C353.173 265.503 351.83 266.846 350.173 266.846L343.118 266.846C341.461 266.846 340.118 265.503 340.118 263.846L340.118 97.5219C340.118 95.8651 341.461 94.5219 343.118 94.5219L350.173 94.5219C351.83 94.5219 353.173 95.8651 353.173 97.5219Z" fill="#3B2915"/>
<path d="M321.443 288.886C323.395 290.872 326.719 290.35 327.968 287.862L329.082 285.643C333.262 277.321 340.158 270.676 348.63 266.808C351.691 265.411 352.433 261.398 350.075 258.999L348.601 257.5C347.792 256.676 346.55 256.456 345.507 256.952L344.748 257.312C333.312 262.743 324.084 271.931 318.601 283.342C318.088 284.411 318.299 285.688 319.131 286.534L321.443 288.886Z" fill="#3B2915"/>
<path d="M89.777 288.886C87.826 290.872 84.501 290.35 83.252 287.862L82.138 285.643C77.959 277.321 71.062 270.676 62.59 266.808C59.53 265.411 58.788 261.398 61.146 258.999L62.619 257.5C63.429 256.676 64.671 256.456 65.714 256.952L66.473 257.312C77.909 262.743 87.137 271.931 92.619 283.342C93.133 284.411 92.921 285.688 92.09 286.534L89.777 288.886Z" fill="#3B2915"/>
<path d="M205.327 157.527C205.327 158.933 207.168 159.461 207.913 158.269C215.863 145.549 226.761 134.934 239.685 127.322L245.177 124.088C263.532 113.277 284.446 107.576 305.748 107.576H348.867C350.524 107.576 351.867 106.233 351.867 104.576V97.5708C351.867 95.8948 350.494 94.5439 348.818 94.5712L299.043 95.3842C281.177 95.676 263.603 99.9538 247.602 107.905L240.074 111.646C226.078 118.601 214.168 129.129 205.547 142.165C205.403 142.382 205.327 142.638 205.327 142.899V157.527Z" fill="#3B2915"/>
<path d="M208.848 277.895C228.561 264.957 250.906 256.567 274.263 253.334C297.62 250.101 321.404 252.105 343.891 259.201L340.663 269.429C319.694 262.812 297.515 260.943 275.734 263.958C253.953 266.973 233.116 274.797 214.733 286.862L208.848 277.895Z" fill="#3B2915"/>
<path d="M219.866 294.836C251.913 275.235 290.435 269.167 326.956 277.968L324.788 289.169C324.68 289.728 324.126 290.084 323.571 289.955C290.667 282.318 255.429 288.211 226.599 305.845L219.866 294.836Z" fill="#3B2915"/>
<path d="M223.893 286.519L229.804 289.365L253.956 292.303C243.2 297.25 233.352 304.095 224.98 312.467L224.842 312.605C224.467 312.98 223.958 313.19 223.428 313.19H203.695V301.441H215.77L219.414 298.226C220.095 297.625 219.687 296.501 218.779 296.477L209.243 296.219L208.264 280.88L223.603 280.553L222.589 282.327C221.726 283.838 222.325 285.764 223.893 286.519Z" fill="#3B2915"/>
<rect x="190" y="295" width="30" height="7" rx="3.5" fill="#8E6E4A"/>
</svg>
